# Blender v2.79 (sub 0) OBJ File: 'mariachi.blend'
# www.blender.org
mtllib ground.mtl
o Plane.004_Plane.012
v -3.870730 0.000000 1.942135
v 3.870730 0.000000 1.942135
v -3.870730 0.000000 -1.942135
v 3.870730 0.000000 -1.942135
v -3.870730 -0.118086 -1.942135
v -3.870730 -0.118086 1.942135
v 3.870730 -0.118086 1.942135
v 3.870730 -0.118086 -1.942135
vt 0.310783 0.830739
vt 0.530048 0.830739
vt 0.530048 0.989558
vt 0.310783 0.989558
vt 0.310783 0.830739
vt 0.310783 0.989558
vt 0.530048 0.989558
vt 0.530048 0.830739
vn 0.0000 1.0000 0.0000
vn 0.0000 -1.0000 0.0000
vn 1.0000 0.0000 0.0000
vn -1.0000 0.0000 0.0000
vn 0.0000 0.0000 -1.0000
vn 0.0000 0.0000 1.0000
usemtl Material.001
s off
f 1/1/1 2/2/1 4/3/1 3/4/1
f 6/5/2 5/6/2 8/7/2 7/8/2
f 2/2/3 7/8/3 8/7/3 4/3/3
f 3/4/4 5/6/4 6/5/4 1/1/4
f 4/3/5 8/7/5 5/6/5 3/4/5
f 1/1/6 6/5/6 7/8/6 2/2/6
