# Blender v2.79 (sub 0) OBJ File: 'mariachi.blend'
# www.blender.org
mtllib mariachiHat.mtl
o Circle.003
v -1.659809 2.164779 0.187036
v -1.494128 2.163078 0.879206
v -1.076242 2.167778 1.455314
v -0.469772 2.178161 1.827655
v 0.232954 2.192649 1.939543
v 0.924951 2.209034 1.773943
v 1.500870 2.224823 1.356067
v 1.873031 2.237612 0.749533
v 1.984777 2.245454 0.046679
v 1.819096 2.247154 -0.645490
v 1.401210 2.242455 -1.221599
v 0.794740 2.232072 -1.593940
v 0.092014 2.217584 -1.705828
v -0.599983 2.201199 -1.540228
v -1.175902 2.185410 -1.122352
v -1.548063 2.172621 -0.515817
v -1.649498 2.590592 0.949684
v -1.829776 2.592442 0.196533
v -1.194795 2.595705 1.576550
v -0.534893 2.607004 1.981695
v 0.229745 2.622767 2.103441
v 0.982710 2.640597 1.923250
v 1.609368 2.657777 1.468559
v 2.014318 2.671692 0.808587
v 2.135909 2.680225 0.043810
v 1.955631 2.682075 -0.709341
v 1.500928 2.676962 -1.336207
v 0.841026 2.665664 -1.741353
v 0.076388 2.649900 -1.863099
v -0.676576 2.632071 -1.682909
v -1.303235 2.614891 -1.228216
v -1.708186 2.600975 -0.568244
v -1.688777 2.541876 0.967873
v -1.873089 2.543768 0.197874
v -1.223904 2.547103 1.608761
v -0.549240 2.558655 2.022969
v 0.232502 2.574771 2.147437
v 1.002309 2.592999 1.963217
v 1.642986 2.610563 1.498354
v 2.056994 2.624790 0.823620
v 2.181305 2.633514 0.041736
v 1.996994 2.635406 -0.728263
v 1.532120 2.630178 -1.369151
v 0.857457 2.618627 -1.783360
v 0.075714 2.602510 -1.907828
v -0.694093 2.584282 -1.723608
v -1.334770 2.566718 -1.258744
v -1.748778 2.552491 -0.584009
v -0.375597 2.376511 1.562851
v 1.204154 2.430797 -1.011768
v -0.887667 2.367743 1.248467
v 0.692085 2.422029 -1.326152
v -1.240506 2.363775 0.762033
v 0.098743 2.409797 -1.420623
v -1.380398 2.365212 0.177604
v -0.485541 2.395962 -1.280800
v 0.217745 2.388744 1.657322
v 1.556993 2.434765 -0.525334
v 0.802028 2.402578 1.517499
v 1.696886 2.433329 0.059095
v 1.288301 2.415910 1.164668
v 1.602534 2.426708 0.652545
v -0.971814 2.382631 -0.927969
v -1.286046 2.371832 -0.415845
v -0.212476 2.530554 1.113911
v 0.875067 2.567926 -0.658523
v -0.564998 2.524518 0.897481
v 0.522545 2.561891 -0.874954
v -0.807901 2.521787 0.562607
v 0.114072 2.553469 -0.939990
v -0.904207 2.522775 0.160271
v -0.288164 2.543945 -0.843732
v 0.195996 2.538975 1.178947
v 1.117970 2.570657 -0.323650
v 0.598232 2.548500 1.082690
v 1.214275 2.569669 0.078686
v 0.932995 2.557677 0.839792
v 1.149321 2.565111 0.487233
v -0.622927 2.534767 -0.600834
v -0.839252 2.527333 -0.248274
v -0.162305 2.787539 0.965068
v 0.760317 2.819244 -0.538587
v -0.461369 2.782418 0.781458
v 0.461253 2.814123 -0.722197
v -0.667438 2.780101 0.497366
v 0.114724 2.806979 -0.777371
v -0.749139 2.780940 0.156042
v -0.226516 2.798899 -0.695710
v 0.184224 2.794683 1.020242
v 0.966386 2.821561 -0.254495
v 0.525463 2.802763 0.938581
v 1.048087 2.820722 0.086829
v 0.809462 2.810549 0.732517
v 0.992983 2.816855 0.433421
v -0.510514 2.791113 -0.489646
v -0.694035 2.784806 -0.190550
v -0.097595 2.996633 0.779371
v 0.620212 3.021300 -0.390482
v -0.330269 2.992650 0.636522
v 0.387538 3.017316 -0.533332
v -0.490591 2.990846 0.415496
v 0.117936 3.011758 -0.576258
v -0.554155 2.991499 0.149944
v -0.147551 3.005471 -0.512725
v 0.172008 3.002191 0.822297
v 0.780535 3.023102 -0.169457
v 0.437494 3.008477 0.758765
v 0.844099 3.022450 0.096096
v 0.658447 3.014535 0.598445
v 0.801227 3.019441 0.365747
v -0.368503 2.999413 -0.352406
v -0.511284 2.994507 -0.119707
v 0.031575 3.130612 0.423257
v 0.358846 3.141857 -0.110116
v -0.074508 3.128795 0.358127
v 0.252762 3.140041 -0.175245
v -0.147604 3.127973 0.257355
v 0.129842 3.137507 -0.194816
v -0.176585 3.128270 0.136281
v 0.008798 3.134641 -0.165850
v 0.154495 3.133146 0.442828
v 0.431942 3.142679 -0.009343
v 0.275539 3.136012 0.413862
v 0.460923 3.142382 0.111730
v 0.376278 3.138773 0.340767
v 0.441376 3.141011 0.234673
v -0.091941 3.131879 -0.092755
v -0.157039 3.129642 0.013339
vt 0.128730 0.966820
vt 0.128035 0.967244
vt 0.126589 0.962104
vt 0.127283 0.961681
vt 0.127283 0.967244
vt 0.126057 0.962887
vt 0.126589 0.966820
vt 0.125770 0.963909
vt 0.125770 0.965016
vt 0.126057 0.966038
vt 0.129261 0.966038
vt 0.128035 0.961681
vt 0.129549 0.965016
vt 0.128730 0.962104
vt 0.129549 0.963909
vt 0.129261 0.962887
vt 0.132542 0.964133
vt 0.132312 0.963312
vt 0.132733 0.963138
vt 0.132928 0.963834
vt 0.130420 0.964890
vt 0.130130 0.964110
vt 0.130536 0.963870
vt 0.130781 0.964531
vt 0.133165 0.956512
vt 0.133321 0.955493
vt 0.133727 0.955733
vt 0.133594 0.956596
vt 0.133009 0.961178
vt 0.133239 0.960190
vt 0.133624 0.960493
vt 0.133429 0.961330
vt 0.133165 0.957615
vt 0.133594 0.957530
vt 0.132928 0.962274
vt 0.133361 0.962259
vt 0.133321 0.958633
vt 0.133727 0.958393
vt 0.000874 0.938202
vt 0.115822 0.937238
vt 0.114153 0.995924
vt 0.000220 0.995924
vt 0.000874 0.938202
vt 0.115822 0.937238
vt 0.114153 0.995924
vt 0.000220 0.995924
vt 0.000874 0.938202
vt 0.115822 0.937238
vt 0.114153 0.995924
vt 0.000220 0.995924
vt 0.000874 0.938202
vt 0.115822 0.937238
vt 0.114153 0.995924
vt 0.000220 0.995924
vt 0.000874 0.938202
vt 0.115822 0.937238
vt 0.114153 0.995924
vt 0.000220 0.995924
vt 0.000874 0.938202
vt 0.115822 0.937238
vt 0.114153 0.995924
vt 0.000220 0.995924
vt 0.000780 0.942766
vt 0.117647 0.946401
vt 0.117082 0.996854
vt 0.000095 0.995318
vt 0.000874 0.938202
vt 0.115822 0.937238
vt 0.114153 0.995924
vt 0.000220 0.995924
vt 0.000874 0.938202
vt 0.115822 0.937238
vt 0.114153 0.995924
vt 0.000220 0.995924
vt 0.000874 0.938202
vt 0.115822 0.937238
vt 0.114153 0.995924
vt 0.000220 0.995924
vt 0.000874 0.938202
vt 0.115822 0.937238
vt 0.114153 0.995924
vt 0.000220 0.995924
vt 0.000874 0.938202
vt 0.115822 0.937238
vt 0.114153 0.995924
vt 0.000220 0.995924
vt 0.000874 0.938202
vt 0.115822 0.937238
vt 0.114153 0.995924
vt 0.000220 0.995924
vt 0.000874 0.938202
vt 0.115822 0.937238
vt 0.114153 0.995924
vt 0.000220 0.995924
vt 0.000874 0.938202
vt 0.115822 0.937238
vt 0.114153 0.995924
vt 0.000220 0.995924
vt 0.000874 0.938202
vt 0.115822 0.937238
vt 0.114153 0.995924
vt 0.000220 0.995924
vt 0.080893 0.990453
vt 0.080779 0.990997
vt 0.080684 0.990880
vt 0.080811 0.990274
vt 0.081958 0.991847
vt 0.082035 0.992542
vt 0.081947 0.992667
vt 0.081861 0.991890
vt 0.081958 0.991094
vt 0.081861 0.991050
vt 0.082035 0.990398
vt 0.081947 0.990274
vt 0.080526 0.992545
vt 0.080640 0.993088
vt 0.080558 0.993268
vt 0.080431 0.992661
vt 0.080486 0.991844
vt 0.080386 0.991879
vt 0.080526 0.991093
vt 0.080431 0.991041
vt 0.080640 0.990405
vt 0.080558 0.990274
vt 0.079729 0.993137
vt 0.079871 0.993669
vt 0.079799 0.993855
vt 0.079640 0.993261
vt 0.079652 0.992441
vt 0.079554 0.992485
vt 0.079652 0.991688
vt 0.079554 0.991644
vt 0.079729 0.990992
vt 0.079640 0.990868
vt 0.079871 0.990460
vt 0.079799 0.990274
vt 0.080779 0.992449
vt 0.080893 0.993136
vt 0.080811 0.993268
vt 0.080684 0.992501
vt 0.080739 0.991697
vt 0.080640 0.991662
vt 0.130217 0.956511
vt 0.130666 0.955850
vt 0.130947 0.956471
vt 0.130638 0.956925
vt 0.133165 0.958308
vt 0.132922 0.959171
vt 0.132500 0.958757
vt 0.132668 0.958163
vt 0.129974 0.957374
vt 0.130471 0.957520
vt 0.133165 0.957374
vt 0.132668 0.957520
vt 0.130217 0.959171
vt 0.129974 0.958308
vt 0.130471 0.958163
vt 0.130638 0.958757
vt 0.132922 0.956511
vt 0.132500 0.956925
vt 0.129974 0.963091
vt 0.130403 0.963007
vt 0.132231 0.962274
vt 0.132664 0.962259
vt 0.129974 0.961988
vt 0.130403 0.962073
vt 0.132312 0.961178
vt 0.132733 0.961330
vt 0.130130 0.960970
vt 0.130536 0.961210
vt 0.132542 0.960190
vt 0.132928 0.960493
vt 0.130420 0.960190
vt 0.130781 0.960549
vt 0.133009 0.963312
vt 0.133429 0.963138
vt 0.133239 0.964133
vt 0.133624 0.963834
vt 0.079916 0.990584
vt 0.079999 0.990274
vt 0.080386 0.990416
vt 0.080316 0.990679
vt 0.080893 0.992244
vt 0.080938 0.991838
vt 0.081338 0.991933
vt 0.081300 0.992277
vt 0.079871 0.991429
vt 0.079871 0.990990
vt 0.080278 0.991023
vt 0.080278 0.991396
vt 0.080893 0.992683
vt 0.081300 0.992650
vt 0.079916 0.991835
vt 0.080316 0.991740
vt 0.080938 0.993089
vt 0.081338 0.992994
vt 0.079999 0.992145
vt 0.080386 0.992003
vt 0.132473 0.959832
vt 0.132191 0.959212
vt 0.131252 0.955493
vt 0.131351 0.956224
vt 0.131887 0.960190
vt 0.131788 0.959458
vt 0.131887 0.955493
vt 0.131788 0.956224
vt 0.131252 0.960190
vt 0.131351 0.959458
vt 0.132473 0.955850
vt 0.132191 0.956471
vt 0.130665 0.959832
vt 0.130947 0.959212
vt 0.132730 0.965380
vt 0.132770 0.964837
vt 0.133127 0.964955
vt 0.133095 0.965377
vt 0.131316 0.963422
vt 0.131316 0.963967
vt 0.130952 0.963907
vt 0.130952 0.963482
vt 0.132770 0.965893
vt 0.133127 0.965777
vt 0.131238 0.962918
vt 0.130892 0.963090
vt 0.132884 0.966300
vt 0.133215 0.966093
vt 0.131095 0.962532
vt 0.130781 0.962790
vt 0.131279 0.965708
vt 0.131357 0.965204
vt 0.131703 0.965376
vt 0.131643 0.965769
vt 0.080983 0.991838
vt 0.080916 0.991521
vt 0.081321 0.991461
vt 0.081377 0.991730
vt 0.081466 0.991838
vt 0.081400 0.991437
vt 0.081804 0.991369
vt 0.081861 0.991709
vt 0.080893 0.991113
vt 0.081301 0.991114
vt 0.081377 0.990999
vt 0.081785 0.990998
vt 0.080916 0.990675
vt 0.081321 0.990743
vt 0.081400 0.990591
vt 0.081804 0.990651
vt 0.080983 0.990274
vt 0.081377 0.990403
vt 0.081466 0.990274
vt 0.081861 0.990382
vt 0.132120 0.961861
vt 0.131917 0.962161
vt 0.131808 0.961923
vt 0.131958 0.961702
vt 0.130891 0.960652
vt 0.131095 0.960352
vt 0.131204 0.960591
vt 0.131053 0.960812
vt 0.132231 0.961469
vt 0.132040 0.961413
vt 0.130781 0.961044
vt 0.130972 0.961100
vt 0.132231 0.961044
vt 0.132040 0.961100
vt 0.130891 0.961861
vt 0.130781 0.961469
vt 0.130972 0.961413
vt 0.131053 0.961702
vt 0.131238 0.964471
vt 0.130892 0.964299
vt 0.132884 0.964348
vt 0.133215 0.964575
vt 0.131095 0.964857
vt 0.130781 0.964599
vt 0.130336 0.966650
vt 0.130296 0.966137
vt 0.130661 0.966134
vt 0.130692 0.966534
vt 0.130450 0.967056
vt 0.130781 0.966850
vt 0.131357 0.966758
vt 0.131279 0.966254
vt 0.131643 0.966193
vt 0.131703 0.966585
vt 0.130336 0.965594
vt 0.130692 0.965712
vt 0.130450 0.965105
vt 0.130781 0.965332
vt 0.131612 0.962042
vt 0.131400 0.962042
vt 0.131204 0.961923
vt 0.131400 0.960471
vt 0.131612 0.960471
vt 0.131808 0.960591
vt 0.131958 0.960812
vt 0.131362 0.960190
vt 0.131650 0.962324
vt 0.131650 0.960190
vt 0.131362 0.962324
vt 0.131917 0.960352
vt 0.131095 0.962161
vt 0.132120 0.960652
vn -0.1754 -0.8377 0.5172
vn -0.3610 -0.8409 0.4033
vn 0.2116 -0.8212 -0.5300
vn 0.3972 -0.8180 -0.4160
vn -0.4889 -0.8423 0.2269
vn -0.0035 -0.8256 -0.5642
vn -0.5396 -0.8418 0.0151
vn -0.2152 -0.8306 -0.5135
vn -0.3915 -0.8355 -0.3856
vn -0.5054 -0.8394 -0.2000
vn 0.0397 -0.8333 0.5514
vn 0.5251 -0.8166 -0.2397
vn 0.2515 -0.8283 0.5008
vn 0.5758 -0.8171 -0.0279
vn 0.4277 -0.8234 0.3729
vn 0.5416 -0.8195 0.1873
vn 0.0609 0.9748 -0.2147
vn -0.0304 0.9729 -0.2292
vn -0.0161 0.9885 0.1507
vn -0.0712 0.9873 0.1419
vn -0.1033 0.9678 0.2296
vn -0.0121 0.9697 0.2442
vn -0.0271 0.9904 -0.1355
vn 0.0280 0.9915 -0.1267
vn 0.1397 0.9761 -0.1664
vn -0.1188 0.9865 0.1127
vn -0.1821 0.9664 0.1813
vn 0.0756 0.9924 -0.0974
vn 0.1939 0.9767 -0.0915
vn -0.1516 0.9861 0.0674
vn -0.2364 0.9658 0.1065
vn 0.1084 0.9927 -0.0522
vn 0.2154 0.9765 -0.0016
vn -0.1646 0.9863 0.0131
vn 0.6715 0.1408 -0.7275
vn 0.8989 0.1434 -0.4140
vn -0.3467 0.1058 0.9320
vn -0.6768 0.1002 0.7293
vn 0.3415 0.1352 -0.9301
vn 0.0357 0.1137 0.9929
vn -0.0410 0.1273 -0.9910
vn 0.4123 0.1226 0.9027
vn -0.4176 0.1184 -0.9009
vn 0.7257 0.1312 0.6753
vn -0.7310 0.1098 -0.6735
vn 0.9283 0.1382 0.3452
vn -0.9335 0.1028 -0.3434
vn 0.9891 0.1425 -0.0373
vn -0.9042 0.0976 0.4158
vn -0.9944 0.0986 0.0391
vn -0.2579 0.9660 0.0166
vn 0.0778 0.9718 0.2227
vn 0.1526 0.9738 0.1684
vn 0.2009 0.9755 0.0896
vn -0.1202 0.9708 -0.2077
vn -0.1950 0.9687 -0.1535
vn -0.2434 0.9671 -0.0747
vn -0.2183 0.8071 0.5486
vn -0.4105 0.8038 0.4306
vn 0.3749 0.8275 -0.4181
vn 0.5074 0.8289 -0.2354
vn -0.5430 0.8023 0.2480
vn 0.5599 0.8284 -0.0160
vn 0.1126 0.9920 0.0573
vn 0.1214 0.9926 0.0021
vn -0.5955 0.8028 0.0285
vn -0.5601 0.8053 -0.1943
vn -0.1559 0.9869 -0.0421
vn 0.5245 0.8259 0.2068
vn -0.0815 0.9891 -0.1225
vn 0.0382 0.9897 0.1377
vn -0.1267 0.9879 -0.0897
vn 0.0834 0.9910 0.1049
vn -0.7317 0.5935 0.3353
vn -0.8035 0.5942 0.0351
vn 0.7768 0.6292 -0.0257
vn 0.7284 0.6258 0.2790
vn -0.4421 0.8094 -0.3866
vn -0.7551 0.5976 -0.2696
vn -0.5937 0.6032 -0.5326
vn 0.4065 0.8219 0.3991
vn 0.5670 0.6203 0.5420
vn -0.2595 0.8144 -0.5191
vn -0.3440 0.6100 -0.7138
vn 0.2239 0.8169 0.5316
vn 0.3173 0.6134 0.7232
vn -0.0402 0.8196 -0.5716
vn -0.0439 0.6171 -0.7856
vn 0.1826 0.8242 -0.5361
vn 0.0045 0.8117 0.5841
vn -0.4250 0.8260 -0.3702
vn -0.2499 0.8308 -0.4972
vn 0.3886 0.8380 0.3830
vn 0.2136 0.8332 0.5100
vn -0.0396 0.8358 -0.5476
vn 0.0172 0.6063 0.7950
vn 0.0032 0.8282 0.5604
vn 0.2608 0.6234 -0.7371
vn 0.1740 0.8402 -0.5136
vn -0.2875 0.6000 0.7465
vn -0.2103 0.8238 0.5264
vn 0.5238 0.6279 -0.5757
vn 0.3583 0.8434 -0.4004
vn 0.7050 0.6299 -0.3259
vn -0.5505 0.5955 0.5851
vn 0.0414 0.9858 -0.1626
vn 0.1018 0.9868 -0.1256
vn -0.3947 0.8207 0.4132
vn -0.0844 0.9805 0.1777
vn -0.1447 0.9794 0.1407
vn 0.4853 0.8448 -0.2253
vn 0.1433 0.9873 -0.0683
vn -0.5217 0.8192 0.2381
vn -0.1863 0.9790 0.0834
vn 0.5357 0.8443 -0.0149
vn 0.1598 0.9871 0.0006
vn -0.5381 0.8221 -0.1859
vn -0.5720 0.8198 0.0277
vn -0.2028 0.9791 0.0145
vn -0.1916 0.9799 -0.0554
vn 0.5017 0.8419 0.1987
vn -0.0285 0.9844 -0.1738
vn -0.0973 0.9827 -0.1573
vn -0.1546 0.9812 -0.1157
vn -0.0145 0.9819 0.1889
vn 0.0544 0.9835 0.1724
vn 0.1117 0.9851 0.1308
vn 0.1487 0.9864 0.0705
usemtl Material.003
s 1
f 4/1/1 3/2/2 12/3/3 11/4/4
f 3/2/2 2/5/5 13/6/6 12/3/3
f 2/5/5 1/7/7 14/8/8 13/6/6
f 15/9/9 14/8/8 1/7/7 16/10/10
f 5/11/11 4/1/1 11/4/4 10/12/12
f 6/13/13 5/11/11 10/12/12 9/14/14
f 7/15/15 6/13/13 9/14/14 8/16/16
f 28/17/17 29/18/18 54/19/19 52/20/20
f 20/21/21 21/22/22 57/23/23 49/24/24
f 27/25/25 28/26/17 52/27/20 50/28/26
f 19/29/27 20/30/21 49/31/24 51/32/28
f 26/33/29 27/25/25 50/28/26 58/34/30
f 17/35/31 19/29/27 51/32/28 53/36/32
f 25/37/33 26/33/29 58/34/30 60/38/34
f 10/39/12 11/40/4 43/41/35 42/42/36
f 3/43/2 4/44/1 36/45/37 35/46/38
f 11/47/4 12/48/3 44/49/39 43/50/35
f 4/51/1 5/52/11 37/53/40 36/54/37
f 12/55/3 13/56/6 45/57/41 44/58/39
f 5/59/11 6/60/13 38/61/42 37/62/40
f 13/63/6 14/64/8 46/65/43 45/66/41
f 6/67/13 7/68/15 39/69/44 38/70/42
f 14/71/8 15/72/9 47/73/45 46/74/43
f 7/75/15 8/76/16 40/77/46 39/78/44
f 15/79/9 16/80/10 48/81/47 47/82/45
f 8/83/16 9/84/14 41/85/48 40/86/46
f 1/87/7 2/88/5 33/89/49 34/90/50
f 16/91/10 1/92/7 34/93/50 48/94/47
f 9/95/14 10/96/12 42/97/36 41/98/48
f 2/99/5 3/100/2 35/101/38 33/102/49
f 17/103/31 18/104/51 34/105/50 33/106/49
f 19/107/27 17/108/31 33/109/49 35/110/38
f 20/111/21 19/107/27 35/110/38 36/112/37
f 21/113/22 20/111/21 36/112/37 37/114/40
f 22/115/52 21/116/22 37/117/40 38/118/42
f 23/119/53 22/115/52 38/118/42 39/120/44
f 24/121/54 23/119/53 39/120/44 40/122/46
f 25/123/33 24/121/54 40/122/46 41/124/48
f 26/125/29 25/126/33 41/127/48 42/128/36
f 27/129/25 26/125/29 42/128/36 43/130/35
f 28/131/17 27/129/25 43/130/35 44/132/39
f 29/133/18 28/131/17 44/132/39 45/134/41
f 30/135/55 29/133/18 45/134/41 46/136/43
f 31/137/56 30/138/55 46/139/43 47/140/45
f 32/141/57 31/137/56 47/140/45 48/142/47
f 18/104/51 32/141/57 48/142/47 34/105/50
f 51/143/28 49/144/24 65/145/58 67/146/59
f 58/147/30 50/148/26 66/149/60 74/150/61
f 53/151/32 51/143/28 67/146/59 69/152/62
f 60/153/34 58/147/30 74/150/61 76/154/63
f 64/155/64 55/156/65 71/157/66 80/158/67
f 55/156/65 53/151/32 69/152/62 71/157/66
f 62/159/68 60/153/34 76/154/63 78/160/69
f 21/22/22 22/161/52 59/162/70 57/23/23
f 29/18/18 30/163/55 56/164/71 54/19/19
f 22/161/52 23/165/53 61/166/72 59/162/70
f 30/163/55 31/167/56 63/168/73 56/164/71
f 23/165/53 24/169/54 62/170/68 61/166/72
f 31/167/56 32/171/57 64/172/64 63/168/73
f 24/169/54 25/173/33 60/174/34 62/170/68
f 18/175/51 17/35/31 53/36/32 55/176/65
f 32/177/57 18/175/51 55/176/65 64/178/64
f 71/179/66 69/180/62 85/181/74 87/182/75
f 78/183/69 76/184/63 92/185/76 94/186/77
f 79/187/78 80/188/67 96/189/79 95/190/80
f 77/191/81 78/183/69 94/186/77 93/192/82
f 72/193/83 79/187/78 95/190/80 88/194/84
f 75/195/85 77/191/81 93/192/82 91/196/86
f 70/197/87 72/193/83 88/194/84 86/198/88
f 50/148/26 52/199/20 68/200/89 66/149/60
f 49/144/24 57/201/23 73/202/90 65/145/58
f 52/199/20 54/203/19 70/204/87 68/200/89
f 57/201/23 59/205/70 75/206/85 73/202/90
f 54/203/19 56/207/71 72/208/83 70/204/87
f 59/205/70 61/209/72 77/210/81 75/206/85
f 56/207/71 63/211/73 79/212/78 72/208/83
f 61/209/72 62/159/68 78/160/69 77/210/81
f 63/211/73 64/155/64 80/158/67 79/212/78
f 88/213/84 95/214/80 111/215/91 104/216/92
f 91/217/86 93/218/82 109/219/93 107/220/94
f 86/221/88 88/213/84 104/216/92 102/222/95
f 89/223/96 91/217/86 107/220/94 105/224/97
f 84/225/98 86/221/88 102/222/95 100/226/99
f 81/227/100 89/223/96 105/224/97 97/228/101
f 82/229/102 84/230/98 100/231/99 98/232/103
f 80/188/67 71/179/66 87/182/75 96/189/79
f 76/233/63 74/234/61 90/235/104 92/236/76
f 69/237/62 67/238/59 83/239/105 85/240/74
f 74/234/61 66/241/60 82/242/102 90/235/104
f 67/238/59 65/243/58 81/244/100 83/239/105
f 66/241/60 68/245/89 84/246/98 82/242/102
f 65/243/58 73/247/90 89/248/96 81/244/100
f 68/245/89 70/249/87 86/250/88 84/246/98
f 73/247/90 75/251/85 91/252/86 89/248/96
f 98/253/103 100/254/99 116/255/106 114/256/107
f 99/257/108 97/258/101 113/259/109 115/260/110
f 106/261/111 98/253/103 114/256/107 122/262/112
f 101/263/113 99/257/108 115/260/110 117/264/114
f 108/265/115 106/261/111 122/262/112 124/266/116
f 112/267/117 103/268/118 119/269/119 128/270/120
f 103/268/118 101/263/113 117/264/114 119/269/119
f 93/218/82 94/271/77 110/272/121 109/219/93
f 95/214/80 96/273/79 112/274/117 111/215/91
f 94/271/77 92/275/76 108/276/115 110/272/121
f 87/277/75 85/278/74 101/279/113 103/280/118
f 96/281/79 87/277/75 103/280/118 112/282/117
f 92/283/76 90/284/104 106/285/111 108/286/115
f 85/278/74 83/287/105 99/288/108 101/279/113
f 90/284/104 82/229/102 98/232/103 106/285/111
f 83/287/105 81/289/100 97/290/101 99/288/108
f 113/259/109 114/256/107 116/255/106 115/260/110
f 115/260/110 116/255/106 118/291/122 117/264/114
f 117/264/114 118/291/122 120/292/123 119/269/119
f 127/293/124 128/270/120 119/269/119 120/292/123
f 121/294/125 122/262/112 114/256/107 113/259/109
f 123/295/126 124/266/116 122/262/112 121/294/125
f 125/296/127 126/297/128 124/266/116 123/295/126
f 97/258/101 105/298/97 121/294/125 113/259/109
f 100/254/99 102/299/95 118/291/122 116/255/106
f 105/298/97 107/300/94 123/295/126 121/294/125
f 102/299/95 104/301/92 120/292/123 118/291/122
f 107/300/94 109/302/93 125/296/127 123/295/126
f 104/301/92 111/303/91 127/293/124 120/292/123
f 109/302/93 110/304/121 126/297/128 125/296/127
f 111/303/91 112/267/117 128/270/120 127/293/124
f 110/304/121 108/265/115 124/266/116 126/297/128
