# Blender v2.79 (sub 0) OBJ File: 'mariachi.blend'
# www.blender.org
mtllib wall.mtl
o Cube
v -4.907769 -8.965665 0.312156
v -4.907769 -0.062794 0.312156
v -4.907769 -8.965665 -0.312156
v -4.907769 -0.062794 -0.312156
v 4.907769 -8.965665 0.312156
v 4.907769 -0.062794 0.312156
v 4.907769 -8.965665 -0.312156
v 4.907769 -0.062794 -0.312156
v 1.635923 -8.965665 -0.312156
v -1.635923 -8.965665 -0.312156
v -1.635923 -0.062794 -0.312156
v 1.635923 -0.062794 -0.312156
v -1.635923 -8.965665 0.312156
v 1.635923 -8.965665 0.312156
v 1.635923 -0.062794 0.312156
v -1.635923 -0.062794 0.312156
v -4.907769 -5.998041 0.312156
v -4.907769 -3.030418 0.312156
v -4.907769 -3.030418 -0.312156
v -4.907769 -5.998041 -0.312156
v 4.907769 -3.030418 -0.312156
v 4.907769 -5.998041 -0.312156
v 4.907769 -3.030418 0.312156
v 4.907769 -5.998041 0.312156
v 1.635923 -3.030418 0.312156
v 1.635923 -5.998041 0.312156
v -1.635923 -3.030418 0.312156
v -1.635923 -5.998041 0.312156
v -1.635923 -3.030418 -0.312156
v -1.635923 -5.998041 -0.312156
v 1.635923 -3.030418 -0.312156
v 1.635923 -5.998041 -0.312156
vt 0.243030 0.596954
vt 0.243030 0.821474
vt 0.275749 0.821474
vt 0.275749 0.596954
vt 0.240356 0.001410
vt 0.238674 0.823987
vt 0.832820 0.821815
vt 0.832991 0.000111
vt 0.275749 0.596954
vt 0.275749 0.821474
vt 0.243030 0.821474
vt 0.243030 0.596954
vt 0.832991 0.000111
vt 0.832820 0.821815
vt 0.238674 0.823987
vt 0.240356 0.001410
vt 0.481984 0.813834
vt 0.601062 0.813834
vt 0.601062 0.781033
vt 0.481984 0.781033
vt 0.362906 0.813834
vt 0.243828 0.813834
vt 0.243828 0.781033
vt 0.362906 0.781033
vt 0.601062 0.813834
vt 0.481984 0.813834
vt 0.481984 0.781033
vt 0.601062 0.781033
vt 0.243828 0.813834
vt 0.362906 0.813834
vt 0.362906 0.781033
vt 0.243828 0.781033
vt 0.832991 0.000111
vt 0.832820 0.821815
vt 0.238674 0.823987
vt 0.240356 0.001410
vt 0.832991 0.000111
vt 0.832820 0.821815
vt 0.238674 0.823987
vt 0.240356 0.001410
vt 0.240356 0.001410
vt 0.238674 0.823987
vt 0.832820 0.821815
vt 0.832991 0.000111
vt 0.240356 0.001410
vt 0.238674 0.823987
vt 0.832820 0.821815
vt 0.832991 0.000111
vt 0.240356 0.001410
vt 0.238674 0.823987
vt 0.832820 0.821815
vt 0.832991 0.000111
vt 0.240356 0.001410
vt 0.238674 0.823987
vt 0.832820 0.821815
vt 0.832991 0.000111
vt 0.240356 0.001410
vt 0.238674 0.823987
vt 0.832820 0.821815
vt 0.832991 0.000111
vt 0.240356 0.001410
vt 0.238674 0.823987
vt 0.832820 0.821815
vt 0.832991 0.000111
vt 0.832991 0.000111
vt 0.832820 0.821815
vt 0.238674 0.823987
vt 0.240356 0.001410
vt 0.832991 0.000111
vt 0.832820 0.821815
vt 0.238674 0.823987
vt 0.240356 0.001410
vt 0.832991 0.000111
vt 0.832820 0.821815
vt 0.238674 0.823987
vt 0.240356 0.001410
vt 0.832991 0.000111
vt 0.832820 0.821815
vt 0.238674 0.823987
vt 0.240356 0.001410
vt 0.832991 0.000111
vt 0.832820 0.821815
vt 0.238674 0.823987
vt 0.240356 0.001410
vt 0.832991 0.000111
vt 0.832820 0.821815
vt 0.238674 0.823987
vt 0.240356 0.001410
vt 0.275749 0.147913
vt 0.275749 0.372434
vt 0.243030 0.372434
vt 0.243030 0.147913
vt 0.240356 0.001410
vt 0.238674 0.823987
vt 0.832820 0.821815
vt 0.832991 0.000111
vt 0.240356 0.001410
vt 0.238674 0.823987
vt 0.832820 0.821815
vt 0.832991 0.000111
vt 0.243030 0.147913
vt 0.243030 0.372434
vt 0.275749 0.372434
vt 0.275749 0.147913
vn -1.0000 0.0000 0.0000
vn 0.0000 0.0000 -1.0000
vn 1.0000 0.0000 0.0000
vn 0.0000 0.0000 1.0000
vn 0.0000 -1.0000 0.0000
vn 0.0000 1.0000 0.0000
usemtl Material.001
s off
f 18/1/1 2/2/1 4/3/1 19/4/1
f 31/5/2 12/6/2 8/7/2 21/8/2
f 21/9/3 8/10/3 6/11/3 23/12/3
f 27/13/4 16/14/4 2/15/4 18/16/4
f 9/17/5 7/18/5 5/19/5 14/20/5
f 11/21/6 4/22/6 2/23/6 16/24/6
f 8/25/6 12/26/6 15/27/6 6/28/6
f 12/26/6 11/21/6 16/24/6 15/27/6
f 3/29/5 10/30/5 13/31/5 1/32/5
f 10/30/5 9/17/5 14/20/5 13/31/5
f 23/33/4 6/34/4 15/35/4 25/36/4
f 25/37/4 15/38/4 16/39/4 27/40/4
f 19/41/2 4/42/2 11/43/2 29/44/2
f 29/45/2 11/46/2 12/47/2 31/48/2
f 10/49/2 30/50/2 32/51/2 9/52/2
f 30/53/2 29/54/2 31/55/2 32/56/2
f 3/57/2 20/58/2 30/59/2 10/60/2
f 20/61/2 19/62/2 29/63/2 30/64/2
f 14/65/4 26/66/4 28/67/4 13/68/4
f 26/69/4 25/70/4 27/71/4 28/72/4
f 5/73/4 24/74/4 26/75/4 14/76/4
f 24/77/4 23/78/4 25/79/4 26/80/4
f 13/81/4 28/82/4 17/83/4 1/84/4
f 28/85/4 27/86/4 18/87/4 17/88/4
f 7/89/3 22/90/3 24/91/3 5/92/3
f 22/90/3 21/9/3 23/12/3 24/91/3
f 9/93/2 32/94/2 22/95/2 7/96/2
f 32/97/2 31/98/2 21/99/2 22/100/2
f 1/101/1 17/102/1 20/103/1 3/104/1
f 17/102/1 18/1/1 19/4/1 20/103/1
